<svg width="19" height="19" viewBox="0 0 19 19" fill="none" xmlns="http://www.w3.org/2000/svg">
<path fill-rule="evenodd" clip-rule="evenodd" d="M5.09015 8.28957C8.23238 6.85551 11.3746 5.42237 14.5159 3.98831C14.7407 3.88614 14.9709 4.11901 14.8699 4.34636C13.5113 7.39213 12.1527 10.4388 10.794 13.4855C10.6939 13.7101 10.3718 13.6917 10.2981 13.457C9.92772 12.2843 9.46817 11.1632 8.77292 10.5134C7.90842 9.70522 6.49519 9.2137 5.122 8.79305C4.8854 8.72126 4.86538 8.39174 5.09015 8.28957ZM18.9995 0.872586C19.0296 -0.0819192 17.6218 -0.113215 17.0594 0.123341C12.8434 1.90441 8.76837 4.0104 4.54596 5.77766C3.86255 6.10534 3.18187 6.43302 2.49846 6.76162C1.57299 7.23105 -0.450857 7.97385 0.0905946 9.03973C0.841346 10.5189 2.95346 10.6524 4.67518 11.1043C5.97012 11.4449 7.01025 12.4159 7.44432 13.6954C7.68911 14.4142 7.94482 15.1754 8.09952 15.5896C8.52358 16.7227 8.73652 18.1144 9.78394 18.8112C10.0961 19.0192 10.5074 19.0634 10.8459 18.9033C11.8405 18.4329 12.0944 17.1986 12.5167 16.2514C13.484 14.0829 14.4504 11.9152 15.4178 9.74664L18.1332 3.65786C18.5291 2.76963 18.9677 1.87588 18.9995 0.872586Z" fill="#502314"/>
</svg>
